<svg width="100%" viewBox="0 0 680 510" xmlns="http://www.w3.org/2000/svg" style="font-family:sans-serif">
<defs>
<marker id="arrow" viewBox="0 0 10 10" refX="8" refY="5" markerWidth="5" markerHeight="5" orient="auto-start-reverse"><path d="M2 1L8 5L2 9" fill="none" stroke="#993C1D" stroke-width="1.5" stroke-linecap="round" stroke-linejoin="round"/></marker>
<style>
  .label  { font-size:11px; fill:#3d3d3a; }
  .danger { fill:#A32D2D; font-size:11px; }
  .grid      { stroke:#D3D1C7; stroke-width:0.5; }
  .grid-sec  { stroke:#B4B2A9; stroke-width:0.5; }
  .border    { stroke:#888780; stroke-width:0.5; fill:none; }
  .today     { stroke:#185FA5; stroke-width:1.5; stroke-dasharray:4 3; }
  .deadline  { stroke:#E24B4A; stroke-width:1; stroke-dasharray:4 3; opacity:0.6; }
  .diamond   { fill:#B4B2A9; stroke:#5F5E5A; stroke-width:1; }
  .row-bg    { fill:#F1EFE8; }
  .ph-teal   { fill:#9FE1CB; stroke:#0F6E56; stroke-width:0.5; }
  .ph-blue   { fill:#B5D4F4; stroke:#185FA5; stroke-width:0.5; }
  .ph-purple { fill:#CECBF6; stroke:#534AB7; stroke-width:0.5; }
  .ph-amber  { fill:#FAC775; stroke:#854F0B; stroke-width:0.5; }
  .ph-coral  { fill:#F5C4B3; stroke:#993C1D; stroke-width:0.5; }
  .planned   { fill:none; stroke:#B4B2A9; stroke-width:0.5; }
  .act-teal   { fill:#9FE1CB; stroke:#085041; stroke-width:2; }
  .act-blue   { fill:#B5D4F4; stroke:#0C447C; stroke-width:2; }
  .act-purple { fill:#CECBF6; stroke:#3C3489; stroke-width:2; }
  .slip       { fill:#F5C4B3; stroke:#993C1D; stroke-width:1.5; }
</style>
<marker id="cparrow" viewBox="0 0 8 8" refX="7" refY="4" markerWidth="5" markerHeight="5" orient="auto-start-reverse">
  <path d="M1 1L7 4L1 7" fill="none" stroke="#042C53" stroke-width="1.5" stroke-linecap="round" stroke-linejoin="round"/>
</marker>
</defs>

<!-- Row backgrounds -->
<rect x="0" y="32"  width="674" height="24" class="row-bg"/>
<rect x="0" y="80"  width="674" height="24" class="row-bg"/>
<rect x="0" y="168" width="674" height="24" class="row-bg"/>
<rect x="0" y="296" width="674" height="24" class="row-bg"/>
<rect x="0" y="384" width="674" height="24" class="row-bg"/>
<rect x="0" y="452" width="674" height="24" class="row-bg"/>

<line x1="198" y1="8" x2="198" y2="476" class="grid"/>
<line x1="232" y1="8" x2="232" y2="476" class="grid"/>
<line x1="266" y1="8" x2="266" y2="476" class="grid"/>
<line x1="300" y1="8" x2="300" y2="476" class="grid"/>
<line x1="334" y1="8" x2="334" y2="476" class="grid"/>
<line x1="368" y1="8" x2="368" y2="476" class="grid"/>
<line x1="402" y1="8" x2="402" y2="476" class="grid"/>
<line x1="436" y1="8" x2="436" y2="476" class="grid"/>
<line x1="470" y1="8" x2="470" y2="476" class="grid"/>
<line x1="504" y1="8" x2="504" y2="476" class="grid"/>
<line x1="538" y1="8" x2="538" y2="476" class="grid"/>
<line x1="572" y1="8" x2="572" y2="476" class="grid"/>
<line x1="606" y1="8" x2="606" y2="476" class="grid"/>
<line x1="640" y1="8" x2="640" y2="476" class="grid"/>
<line x1="606" y1="8" x2="606" y2="476" class="deadline"/>
<line x1="334" y1="8" x2="334" y2="476" class="today"/>
<line x1="0" y1="8" x2="674" y2="8" class="grid-sec"/>
<line x1="0" y1="32" x2="674" y2="32" class="grid-sec"/>
<line x1="0" y1="56" x2="674" y2="56" class="grid"/>
<line x1="0" y1="76" x2="674" y2="76" class="grid-sec"/>
<line x1="0" y1="80" x2="674" y2="80" class="grid-sec"/>
<line x1="0" y1="104" x2="674" y2="104" class="grid"/>
<line x1="0" y1="124" x2="674" y2="124" class="grid"/>
<line x1="0" y1="144" x2="674" y2="144" class="grid"/>
<line x1="0" y1="164" x2="674" y2="164" class="grid-sec"/>
<line x1="0" y1="168" x2="674" y2="168" class="grid-sec"/>
<line x1="0" y1="192" x2="674" y2="192" class="grid"/>
<line x1="0" y1="212" x2="674" y2="212" class="grid"/>
<line x1="0" y1="232" x2="674" y2="232" class="grid"/>
<line x1="0" y1="252" x2="674" y2="252" class="grid"/>
<line x1="0" y1="272" x2="674" y2="272" class="grid"/>
<line x1="0" y1="292" x2="674" y2="292" class="grid-sec"/>
<line x1="0" y1="296" x2="674" y2="296" class="grid-sec"/>
<line x1="0" y1="320" x2="674" y2="320" class="grid"/>
<line x1="0" y1="340" x2="674" y2="340" class="grid"/>
<line x1="0" y1="360" x2="674" y2="360" class="grid"/>
<line x1="0" y1="380" x2="674" y2="380" class="grid-sec"/>
<line x1="0" y1="384" x2="674" y2="384" class="grid-sec"/>
<line x1="0" y1="408" x2="674" y2="408" class="grid"/>
<line x1="0" y1="428" x2="674" y2="428" class="grid"/>
<line x1="0" y1="448" x2="674" y2="448" class="grid-sec"/>
<line x1="0" y1="452" x2="674" y2="452" class="grid-sec"/>
<line x1="0" y1="476" x2="674" y2="476" class="grid-sec"/>
<rect x="0" y="8" width="674" height="468" class="border"/>
<line x1="162" y1="8" x2="162" y2="476" class="grid-sec"/>

<!-- Month header -->
<text class="label" x="8" y="20" dominant-baseline="central">Mo.</text>
<text class="label" x="181" y="20" text-anchor="middle" dominant-baseline="central">1</text>
<text class="label" x="215" y="20" text-anchor="middle" dominant-baseline="central">2</text>
<text class="label" x="249" y="20" text-anchor="middle" dominant-baseline="central">3</text>
<text class="label" x="283" y="20" text-anchor="middle" dominant-baseline="central">4</text>
<text class="label" x="317" y="20" text-anchor="middle" dominant-baseline="central" style="font-weight:500;fill:#185FA5">5</text>
<text class="label" x="351" y="20" text-anchor="middle" dominant-baseline="central">6</text>
<text class="label" x="385" y="20" text-anchor="middle" dominant-baseline="central">7</text>
<text class="label" x="419" y="20" text-anchor="middle" dominant-baseline="central">8</text>
<text class="label" x="453" y="20" text-anchor="middle" dominant-baseline="central">9</text>
<text class="label" x="487" y="20" text-anchor="middle" dominant-baseline="central">10</text>
<text class="label" x="521" y="20" text-anchor="middle" dominant-baseline="central">11</text>
<text class="label" x="555" y="20" text-anchor="middle" dominant-baseline="central">12</text>
<text class="label" x="589" y="20" text-anchor="middle" dominant-baseline="central">13</text>
<text class="label" x="623" y="20" text-anchor="middle" dominant-baseline="central">14</text>
<text class="label" x="657" y="20" text-anchor="middle" dominant-baseline="central">15</text>

<!-- Section labels -->
<text class="label" x="4" y="44"  dominant-baseline="central">Phase 1 — Initiation</text>
<text class="label" x="4" y="92"  dominant-baseline="central">Phase 2 — Design</text>
<text class="label" x="4" y="180" dominant-baseline="central">Phase 3 — Build</text>
<text class="label" x="4" y="308" dominant-baseline="central">Phase 4 — Testing</text>
<text class="label" x="4" y="396" dominant-baseline="central">Phase 5 — Cutover</text>
<text class="label" x="4" y="464" dominant-baseline="central">Milestones</text>

<!-- Row labels -->
<text class="label" x="4" y="66"  dominant-baseline="central">Initiation &amp; setup</text>
<text class="label" x="4" y="114" dominant-baseline="central">Solution architecture</text>
<text class="label" x="4" y="134" dominant-baseline="central">Detailed requirements</text>
<text class="label" x="4" y="154" dominant-baseline="central">Integration design</text>
<text class="label" x="4" y="202" dominant-baseline="central">Order mgmt / UI</text>
<text class="label" x="4" y="222" dominant-baseline="central">Provisioning integ.</text>
<text class="label" x="4" y="242" dominant-baseline="central">Billing &amp; field</text>
<text class="label" x="4" y="262" dominant-baseline="central">Migration development</text>
<text class="label" x="4" y="282" dominant-baseline="central">Back-office ops</text>
<text class="label" x="4" y="330" dominant-baseline="central">System integ. test</text>
<text class="label" x="4" y="350" dominant-baseline="central">User acceptance test</text>
<text class="label" x="4" y="370" dominant-baseline="central">Performance test</text>
<text class="label" x="4" y="418" dominant-baseline="central">Migration batches</text>
<text class="label" x="4" y="438" dominant-baseline="central">Cutover</text>

<!-- PLANNED BARS (dashed outline) -->
<rect x="164" y="41"  width="68"  height="6"  rx="2" class="planned"/>
<rect x="164" y="59"  width="68"  height="14" rx="3" class="planned"/>
<rect x="198" y="89"  width="136" height="6"  rx="2" class="planned"/>
<rect x="198" y="107" width="102" height="14" rx="3" class="planned"/>
<rect x="198" y="127" width="136" height="14" rx="3" class="planned"/>
<rect x="232" y="147" width="102" height="14" rx="3" class="planned"/>
<rect x="266" y="177" width="272" height="6"  rx="2" class="planned"/>
<rect x="266" y="195" width="238" height="14" rx="3" class="planned"/>
<rect x="266" y="215" width="204" height="14" rx="3" class="planned"/>
<rect x="300" y="235" width="204" height="14" rx="3" class="planned"/>
<rect x="334" y="255" width="204" height="14" rx="3" class="planned"/>
<rect x="300" y="275" width="204" height="14" rx="3" class="planned"/>
<rect x="470" y="305" width="136" height="6"  rx="2" class="planned"/>
<rect x="470" y="323" width="68"  height="14" rx="3" class="planned"/>
<rect x="504" y="343" width="102" height="14" rx="3" class="planned"/>
<rect x="538" y="363" width="68"  height="14" rx="3" class="planned"/>
<rect x="572" y="393" width="102" height="6"  rx="2" class="planned"/>
<rect x="572" y="411" width="102" height="14" rx="3" class="planned"/>
<rect x="606" y="431" width="68"  height="14" rx="3" class="planned"/>
<!-- Phase span bars -->
<rect x="164" y="41"  width="68"  height="6" rx="2" class="ph-teal"/>
<rect x="198" y="89"  width="136" height="6" rx="2" class="ph-blue"/>
<rect x="266" y="177" width="272" height="6" rx="2" class="ph-purple"/>
<rect x="470" y="305" width="136" height="6" rx="2" class="ph-amber"/>
<rect x="572" y="393" width="102" height="6" rx="2" class="ph-coral"/>
<!-- Non-critical path bars -->
<rect x="198" y="107" width="102" height="14" rx="3" class="ph-blue"/>
<rect x="232" y="147" width="102" height="14" rx="3" class="ph-blue"/>
<rect x="266" y="215" width="204" height="14" rx="3" class="ph-purple"/>
<rect x="300" y="235" width="204" height="14" rx="3" class="ph-purple"/>
<rect x="334" y="255" width="204" height="14" rx="3" class="ph-purple"/>
<rect x="300" y="275" width="204" height="14" rx="3" class="ph-purple"/>
<rect x="538" y="363" width="68"  height="14" rx="3" class="ph-amber"/>
<!-- Critical path bars — phase fill, bold outline -->
<rect x="164" y="59"  width="68"  height="14" rx="3" class="ph-teal"/>
<rect x="198" y="127" width="136" height="14" rx="3" class="ph-blue"/>
<rect x="266" y="195" width="238" height="14" rx="3" class="ph-purple"/>
<rect x="470" y="323" width="68"  height="14" rx="3" class="ph-amber"/>
<rect x="504" y="343" width="102" height="14" rx="3" class="ph-amber"/>
<rect x="572" y="411" width="102" height="14" rx="3" class="ph-coral"/>
<rect x="606" y="431" width="68"  height="14" rx="3" class="ph-coral"/>







<line x1="234" y1="154" x2="262" y2="154" stroke="#993C1D" stroke-width="1.2" marker-end="url(#arrow)"/>
<!-- Milestones -->
<rect x="229" y="456" width="6" height="6" transform="rotate(45 232 459)" class="diamond"/>
<rect x="331" y="456" width="6" height="6" transform="rotate(45 334 459)" class="diamond"/>
<rect x="433" y="456" width="6" height="6" transform="rotate(45 436 459)" class="diamond"/>
<rect x="501" y="456" width="6" height="6" transform="rotate(45 504 459)" class="diamond"/>
<rect x="671" y="456" width="6" height="6" transform="rotate(45 674 459)" class="diamond"/>
<text class="label" x="232" y="471" text-anchor="middle" dominant-baseline="central">Kick-off</text>
<text class="label" x="334" y="471" text-anchor="middle" dominant-baseline="central">Design gate</text>
<text class="label" x="436" y="471" text-anchor="middle" dominant-baseline="central">Integ. env</text>
<text class="label" x="504" y="471" text-anchor="middle" dominant-baseline="central">UAT</text>
<text class="label" x="670" y="471" text-anchor="end"    dominant-baseline="central">Go-live</text>

<text class="label" x="336" y="20" dominant-baseline="central" style="font-weight:500;fill:#185FA5">now</text>
<text class="danger" x="608" y="20" dominant-baseline="central">fiber</text>

<rect x="8"   y="484" width="16" height="10" rx="2" class="act-teal"/>
<text class="label" x="28"  y="490" dominant-baseline="central">Complete</text>




<rect x="100" y="484" width="16" height="10" rx="2" class="slip"/>
<text class="label" x="120" y="490" dominant-baseline="central">Slipping</text>
<line x1="204" y1="484" x2="204" y2="494" style="stroke:#185FA5;stroke-width:1.5;stroke-dasharray:4 3"/>
<text class="label" x="210" y="490" dominant-baseline="central">Now (month 5)</text>
<line x1="364" y1="484" x2="364" y2="494" class="deadline"/>
<text class="danger" x="370" y="490" dominant-baseline="central">Fiber deadline</text>

<!-- RAG status indicators at month 5 -->
<circle cx="158" cy="66" r="5" fill="#33CC00" stroke="white" stroke-width="0.8"/>
<circle cx="158" cy="114" r="5" fill="#33CC00" stroke="white" stroke-width="0.8"/>
<circle cx="158" cy="134" r="5" fill="#FF0000" stroke="white" stroke-width="0.8"/>
<circle cx="158" cy="154" r="5" fill="#FFBB00" stroke="white" stroke-width="0.8"/>
<circle cx="158" cy="202" r="5" fill="#33CC00" stroke="white" stroke-width="0.8"/>
<circle cx="158" cy="222" r="5" fill="#33CC00" stroke="white" stroke-width="0.8"/>
<circle cx="158" cy="242" r="5" fill="#FFBB00" stroke="white" stroke-width="0.8"/>
<circle cx="158" cy="262" r="5" fill="#FFBB00" stroke="white" stroke-width="0.8"/>
<circle cx="158" cy="282" r="5" fill="#FFBB00" stroke="white" stroke-width="0.8"/>

<circle cx="158" cy="330" r="5" fill="#FFBB00" stroke="white" stroke-width="0.8"/>
<circle cx="158" cy="350" r="5" fill="#FFBB00" stroke="white" stroke-width="0.8"/>
<circle cx="158" cy="370" r="5" fill="#FFBB00" stroke="white" stroke-width="0.8"/>
<circle cx="158" cy="418" r="5" fill="#FFBB00" stroke="white" stroke-width="0.8"/>
<circle cx="158" cy="438" r="5" fill="#FFBB00" stroke="white" stroke-width="0.8"/>
<!-- ACTUAL PROGRESS BARS AND SLIP INDICATORS -->
<line x1="302" y1="242" x2="330" y2="242" stroke="#993C1D" stroke-width="1.2" marker-end="url(#arrow)"/>
<line x1="302" y1="282" x2="330" y2="282" stroke="#993C1D" stroke-width="1.2" marker-end="url(#arrow)"/>
<!-- Initiation: complete -->
<rect x="164" y="41"  width="68" height="6"  rx="2" class="act-teal"/>
<rect x="164" y="59"  width="68" height="14" rx="3" class="act-teal"/>
<!-- Architecture: in progress, running 1m late -->

<rect x="198" y="107" width="136" height="14" rx="3" class="act-blue"/>
<rect x="300" y="107" width="34"  height="14" rx="3" class="slip"/>
<!-- Requirements (CP): in progress, just past planned end -->

<rect x="334" y="127" width="20"  height="14" rx="3" class="slip"/>
<!-- Integration design: started 1m late -->

<rect x="334" y="147" width="34"  height="14" rx="3" class="slip"/>
<!-- Order mgmt/UI (CP): started m4, 2m in -->

<!-- Provisioning: started m4, 2m in -->
<!-- Freeze milestones -->
<polygon points="334,147 341,154 334,161 327,154" fill="#FAC775" stroke="#854F0B" stroke-width="1.5"/>
<text style="font-size:9px;fill:#633806" x="334" y="169" text-anchor="middle" dominant-baseline="central">API freeze</text>
<polygon points="470,195 477,202 470,209 463,202" fill="#FAC775" stroke="#854F0B" stroke-width="1.5"/>
<text style="font-size:9px;fill:#633806" x="470" y="217" text-anchor="middle" dominant-baseline="central">DM freeze</text>
</svg>