<svg width="100%" viewBox="0 0 680 210" xmlns="http://www.w3.org/2000/svg" style="font-family:sans-serif">
<defs>
<marker id="arr" viewBox="0 0 10 10" refX="8" refY="5" markerWidth="5" markerHeight="5" orient="auto-start-reverse">
<path d="M2 1L8 5L2 9" fill="none" stroke="#9FE1CB" stroke-width="1.5" stroke-linecap="round" stroke-linejoin="round"/>
</marker>
<style>
.act { font-size:10px; font-weight:500; fill:#ffffff; }
.rol { font-size:9px; fill:#3C3489; font-weight:500; }
.sto { font-size:9px; fill:#3d3d3a; }
</style>
</defs>
<rect x="0" y="0" width="97" height="26" fill="#085041"/>
<rect x="97" y="0" width="97" height="26" fill="#085041"/>
<line x1="97" y1="0" x2="97" y2="210" stroke="#5DCAA5" stroke-width="0.8"/>
<rect x="194" y="0" width="97" height="26" fill="#085041"/>
<line x1="194" y1="0" x2="194" y2="210" stroke="#5DCAA5" stroke-width="0.8"/>
<rect x="291" y="0" width="97" height="26" fill="#085041"/>
<line x1="291" y1="0" x2="291" y2="210" stroke="#5DCAA5" stroke-width="0.8"/>
<rect x="388" y="0" width="97" height="26" fill="#085041"/>
<line x1="388" y1="0" x2="388" y2="210" stroke="#5DCAA5" stroke-width="0.8"/>
<rect x="485" y="0" width="97" height="26" fill="#085041"/>
<line x1="485" y1="0" x2="485" y2="210" stroke="#5DCAA5" stroke-width="0.8"/>
<rect x="582" y="0" width="98" height="26" fill="#085041"/>
<line x1="582" y1="0" x2="582" y2="210" stroke="#5DCAA5" stroke-width="0.8"/>
<line x1="93" y1="13" x2="101" y2="13" stroke="#9FE1CB" stroke-width="1.2" marker-end="url(#arr)"/>
<line x1="190" y1="13" x2="198" y2="13" stroke="#9FE1CB" stroke-width="1.2" marker-end="url(#arr)"/>
<line x1="287" y1="13" x2="295" y2="13" stroke="#9FE1CB" stroke-width="1.2" marker-end="url(#arr)"/>
<line x1="384" y1="13" x2="392" y2="13" stroke="#9FE1CB" stroke-width="1.2" marker-end="url(#arr)"/>
<line x1="481" y1="13" x2="489" y2="13" stroke="#9FE1CB" stroke-width="1.2" marker-end="url(#arr)"/>
<line x1="578" y1="13" x2="586" y2="13" stroke="#9FE1CB" stroke-width="1.2" marker-end="url(#arr)"/>
<text class="act" x="48" y="14" text-anchor="middle" dominant-baseline="central">Qualify</text>
<text class="act" x="145" y="14" text-anchor="middle" dominant-baseline="central">Create order</text>
<text class="act" x="242" y="14" text-anchor="middle" dominant-baseline="central">Manage order</text>
<text class="act" x="339" y="14" text-anchor="middle" dominant-baseline="central">Provision</text>
<text class="act" x="436" y="14" text-anchor="middle" dominant-baseline="central">Schedule & dispatch</text>
<text class="act" x="533" y="14" text-anchor="middle" dominant-baseline="central">Activate</text>
<text class="act" x="630" y="14" text-anchor="middle" dominant-baseline="central">Handle fallouts</text>
<rect x="0" y="26" width="680" height="18" fill="#E1F5EE"/>
<line x1="0" y1="26" x2="680" y2="26" stroke="#5DCAA5" stroke-width="0.5"/>
<line x1="0" y1="44" x2="680" y2="44" stroke="#5DCAA5" stroke-width="0.5"/>
<text class="rol" x="48" y="36" text-anchor="middle" dominant-baseline="central">Agent / retail</text>
<text class="rol" x="145" y="36" text-anchor="middle" dominant-baseline="central">Agent / retail</text>
<text class="rol" x="242" y="36" text-anchor="middle" dominant-baseline="central">Agent / back-office</text>
<text class="rol" x="339" y="36" text-anchor="middle" dominant-baseline="central">Provisioning coord.</text>
<text class="rol" x="436" y="36" text-anchor="middle" dominant-baseline="central">Dispatcher / engineer</text>
<text class="rol" x="533" y="36" text-anchor="middle" dominant-baseline="central">System / agent</text>
<text class="rol" x="630" y="36" text-anchor="middle" dominant-baseline="central">Back-office / IT</text>
<rect x="0" y="50" width="680" height="160" fill="#F1EFE8" opacity="0.5"/>
<rect x="2" y="50" width="93" height="16" rx="2" fill="#ffffff" stroke="#B4B2A9" stroke-width="0.5"/>
<text class="sto" x="48" y="58" text-anchor="middle" dominant-baseline="central">Service availability</text>
<rect x="2" y="70" width="93" height="16" rx="2" fill="#ffffff" stroke="#B4B2A9" stroke-width="0.5"/>
<text class="sto" x="48" y="78" text-anchor="middle" dominant-baseline="central">Account standing</text>
<rect x="2" y="90" width="93" height="16" rx="2" fill="#ffffff" stroke="#B4B2A9" stroke-width="0.5"/>
<text class="sto" x="48" y="98" text-anchor="middle" dominant-baseline="central">Existing services</text>
<rect x="2" y="110" width="93" height="16" rx="2" fill="#ffffff" stroke="#B4B2A9" stroke-width="0.5"/>
<text class="sto" x="48" y="118" text-anchor="middle" dominant-baseline="central">Upgrade eligibility</text>
<rect x="2" y="130" width="93" height="16" rx="2" fill="#ffffff" stroke="#B4B2A9" stroke-width="0.5"/>
<text class="sto" x="48" y="138" text-anchor="middle" dominant-baseline="central">Network capacity</text>
<rect x="99" y="50" width="93" height="16" rx="2" fill="#ffffff" stroke="#B4B2A9" stroke-width="0.5"/>
<text class="sto" x="145" y="58" text-anchor="middle" dominant-baseline="central">Select product</text>
<rect x="99" y="70" width="93" height="16" rx="2" fill="#ffffff" stroke="#B4B2A9" stroke-width="0.5"/>
<text class="sto" x="145" y="78" text-anchor="middle" dominant-baseline="central">Configure options</text>
<rect x="99" y="90" width="93" height="16" rx="2" fill="#ffffff" stroke="#B4B2A9" stroke-width="0.5"/>
<text class="sto" x="145" y="98" text-anchor="middle" dominant-baseline="central">Capture details</text>
<rect x="99" y="110" width="93" height="16" rx="2" fill="#ffffff" stroke="#B4B2A9" stroke-width="0.5"/>
<text class="sto" x="145" y="118" text-anchor="middle" dominant-baseline="central">Book appointment</text>
<rect x="99" y="130" width="93" height="16" rx="2" fill="#ffffff" stroke="#B4B2A9" stroke-width="0.5"/>
<text class="sto" x="145" y="138" text-anchor="middle" dominant-baseline="central">Order reference</text>
<rect x="99" y="150" width="93" height="16" rx="2" fill="#ffffff" stroke="#B4B2A9" stroke-width="0.5"/>
<text class="sto" x="145" y="158" text-anchor="middle" dominant-baseline="central">Apply promotions</text>
<rect x="99" y="170" width="93" height="16" rx="2" fill="#ffffff" stroke="#B4B2A9" stroke-width="0.5"/>
<text class="sto" x="145" y="178" text-anchor="middle" dominant-baseline="central">Upsell suggestions</text>
<rect x="196" y="50" width="93" height="16" rx="2" fill="#ffffff" stroke="#B4B2A9" stroke-width="0.5"/>
<text class="sto" x="242" y="58" text-anchor="middle" dominant-baseline="central">View status</text>
<rect x="196" y="70" width="93" height="16" rx="2" fill="#ffffff" stroke="#B4B2A9" stroke-width="0.5"/>
<text class="sto" x="242" y="78" text-anchor="middle" dominant-baseline="central">Modify order</text>
<rect x="196" y="90" width="93" height="16" rx="2" fill="#ffffff" stroke="#B4B2A9" stroke-width="0.5"/>
<text class="sto" x="242" y="98" text-anchor="middle" dominant-baseline="central">Cancel order</text>
<rect x="196" y="110" width="93" height="16" rx="2" fill="#ffffff" stroke="#B4B2A9" stroke-width="0.5"/>
<text class="sto" x="242" y="118" text-anchor="middle" dominant-baseline="central">Handle callback</text>
<rect x="196" y="130" width="93" height="16" rx="2" fill="#ffffff" stroke="#B4B2A9" stroke-width="0.5"/>
<text class="sto" x="242" y="138" text-anchor="middle" dominant-baseline="central">Escalate stalled</text>
<rect x="293" y="50" width="93" height="16" rx="2" fill="#ffffff" stroke="#B4B2A9" stroke-width="0.5"/>
<text class="sto" x="339" y="58" text-anchor="middle" dominant-baseline="central">Trigger provisioning</text>
<rect x="293" y="70" width="93" height="16" rx="2" fill="#ffffff" stroke="#B4B2A9" stroke-width="0.5"/>
<text class="sto" x="339" y="78" text-anchor="middle" dominant-baseline="central">Track progress</text>
<rect x="293" y="90" width="93" height="16" rx="2" fill="#ffffff" stroke="#B4B2A9" stroke-width="0.5"/>
<text class="sto" x="339" y="98" text-anchor="middle" dominant-baseline="central">Completion notify</text>
<rect x="293" y="110" width="93" height="16" rx="2" fill="#ffffff" stroke="#B4B2A9" stroke-width="0.5"/>
<text class="sto" x="339" y="118" text-anchor="middle" dominant-baseline="central">Live progress view</text>
<rect x="293" y="130" width="93" height="16" rx="2" fill="#ffffff" stroke="#B4B2A9" stroke-width="0.5"/>
<text class="sto" x="339" y="138" text-anchor="middle" dominant-baseline="central">Auto retry</text>
<rect x="390" y="50" width="93" height="16" rx="2" fill="#ffffff" stroke="#B4B2A9" stroke-width="0.5"/>
<text class="sto" x="436" y="58" text-anchor="middle" dominant-baseline="central">Book appointment</text>
<rect x="390" y="70" width="93" height="16" rx="2" fill="#ffffff" stroke="#B4B2A9" stroke-width="0.5"/>
<text class="sto" x="436" y="78" text-anchor="middle" dominant-baseline="central">Dispatch job</text>
<rect x="390" y="90" width="93" height="16" rx="2" fill="#ffffff" stroke="#B4B2A9" stroke-width="0.5"/>
<text class="sto" x="436" y="98" text-anchor="middle" dominant-baseline="central">Capture completion</text>
<rect x="390" y="110" width="93" height="16" rx="2" fill="#ffffff" stroke="#B4B2A9" stroke-width="0.5"/>
<text class="sto" x="436" y="118" text-anchor="middle" dominant-baseline="central">Route optimisation</text>
<rect x="487" y="50" width="93" height="16" rx="2" fill="#ffffff" stroke="#B4B2A9" stroke-width="0.5"/>
<text class="sto" x="533" y="58" text-anchor="middle" dominant-baseline="central">Trigger activation</text>
<rect x="487" y="70" width="93" height="16" rx="2" fill="#ffffff" stroke="#B4B2A9" stroke-width="0.5"/>
<text class="sto" x="533" y="78" text-anchor="middle" dominant-baseline="central">Update billing</text>
<rect x="487" y="90" width="93" height="16" rx="2" fill="#ffffff" stroke="#B4B2A9" stroke-width="0.5"/>
<text class="sto" x="533" y="98" text-anchor="middle" dominant-baseline="central">Close order</text>
<rect x="487" y="110" width="93" height="16" rx="2" fill="#ffffff" stroke="#B4B2A9" stroke-width="0.5"/>
<text class="sto" x="533" y="118" text-anchor="middle" dominant-baseline="central">Customer SMS/email</text>
<rect x="487" y="130" width="93" height="16" rx="2" fill="#ffffff" stroke="#B4B2A9" stroke-width="0.5"/>
<text class="sto" x="533" y="138" text-anchor="middle" dominant-baseline="central">Quality check</text>
<rect x="584" y="50" width="94" height="16" rx="2" fill="#ffffff" stroke="#B4B2A9" stroke-width="0.5"/>
<text class="sto" x="631" y="58" text-anchor="middle" dominant-baseline="central">View fallout queue</text>
<rect x="584" y="70" width="94" height="16" rx="2" fill="#ffffff" stroke="#B4B2A9" stroke-width="0.5"/>
<text class="sto" x="631" y="78" text-anchor="middle" dominant-baseline="central">Diagnose reason</text>
<rect x="584" y="90" width="94" height="16" rx="2" fill="#ffffff" stroke="#B4B2A9" stroke-width="0.5"/>
<text class="sto" x="631" y="98" text-anchor="middle" dominant-baseline="central">Retry / override</text>
<rect x="584" y="110" width="94" height="16" rx="2" fill="#ffffff" stroke="#B4B2A9" stroke-width="0.5"/>
<text class="sto" x="631" y="118" text-anchor="middle" dominant-baseline="central">Escalate</text>
<rect x="584" y="130" width="94" height="16" rx="2" fill="#ffffff" stroke="#B4B2A9" stroke-width="0.5"/>
<text class="sto" x="631" y="138" text-anchor="middle" dominant-baseline="central">Pattern analytics</text>
<rect x="0" y="0" width="680" height="210" fill="none" stroke="#888780" stroke-width="0.5"/>
</svg>