<svg width="100%" viewBox="0 0 680 242" xmlns="http://www.w3.org/2000/svg" style="font-family:sans-serif">
<defs>
<style>.nl{font-size:12px;font-weight:500} .ns{font-size:10px} .ms{font-size:10px;font-style:italic}</style>
<marker id="arrow" viewBox="0 0 10 10" refX="8" refY="5" markerWidth="6" markerHeight="6" orient="auto-start-reverse"><path d="M2 1L8 5L2 9" fill="none" stroke="context-stroke" stroke-width="1.5" stroke-linecap="round" stroke-linejoin="round"/></marker>
</defs>
<path d="M74,86 L78,86 L78,22 L82,22" fill="none" stroke="#888780" stroke-width="0.8" marker-end="url(#arrow)"/>
<path d="M74,86 L82,86" fill="none" stroke="#888780" stroke-width="0.8" marker-end="url(#arrow)"/>
<path d="M152,22 L156,22 L156,54 L160,54" fill="none" stroke="#888780" stroke-width="0.8" marker-end="url(#arrow)"/>
<path d="M152,86 L156,86 L156,54 L160,54" fill="none" stroke="#888780" stroke-width="0.8" marker-end="url(#arrow)"/>
<path d="M230,54 L236,54 L236,86 L235,86" fill="none" stroke="#888780" stroke-width="0.8" marker-end="url(#arrow)"/>
<path d="M249,86 L252,86" fill="none" stroke="#888780" stroke-width="0.8" marker-end="url(#arrow)"/>
<path d="M242,93 L242,118 L252,118" fill="none" stroke="#888780" stroke-width="0.8" marker-end="url(#arrow)"/>
<path d="M242,93 L242,150 L252,150" fill="none" stroke="#888780" stroke-width="0.8" marker-end="url(#arrow)"/>
<path d="M242,93 L242,182 L252,182" fill="none" stroke="#888780" stroke-width="0.8" marker-end="url(#arrow)"/>
<path d="M352,86 L359,86" fill="none" stroke="#888780" stroke-width="0.8" marker-end="url(#arrow)"/>
<path d="M352,182 L366,182 L366,93" fill="none" stroke="#888780" stroke-width="0.8" marker-end="url(#arrow)"/>
<path d="M322,118 L370,118 L370,90 L380,90" fill="none" stroke="#888780" stroke-width="0.8" marker-end="url(#arrow)"/>
<path d="M322,150 L376,150 L376,96 L380,96" fill="none" stroke="#888780" stroke-width="0.8" marker-end="url(#arrow)"/>
<path d="M373,86 L380,86" fill="none" stroke="#888780" stroke-width="0.8" marker-end="url(#arrow)"/>
<path d="M442,86 L454,86" fill="none" stroke="#888780" stroke-width="0.8" marker-end="url(#arrow)"/>
<path d="M442,86 L448,86 L448,118 L454,118" fill="none" stroke="#888780" stroke-width="0.8" marker-end="url(#arrow)"/>
<path d="M516,86 L528,86" fill="none" stroke="#888780" stroke-width="0.8" marker-end="url(#arrow)"/>
<path d="M516,118 L522,118 L522,86 L528,86" fill="none" stroke="#888780" stroke-width="0.8" marker-end="url(#arrow)"/>
<path d="M590,86 L600,86" fill="none" stroke="#888780" stroke-width="0.8" marker-end="url(#arrow)"/>
<path d="M662,86 L666,86" fill="none" stroke="#888780" stroke-width="0.8" marker-end="url(#arrow)"/>
<rect x="4" y="74" width="70" height="24" rx="3" fill="#9FE1CB" stroke="#0F6E56" stroke-width="0.5"/>
<text class="nl" x="39" y="86" text-anchor="middle" dominant-baseline="central" fill="#085041">Initiation</text>
<rect x="82" y="10" width="70" height="24" rx="3" fill="#B5D4F4" stroke="#185FA5" stroke-width="0.5"/>
<text class="nl" x="117" y="22" text-anchor="middle" dominant-baseline="central" fill="#0C447C">Architecture</text>
<rect x="82" y="74" width="70" height="24" rx="3" fill="#B5D4F4" stroke="#185FA5" stroke-width="0.5"/>
<text class="nl" x="117" y="86" text-anchor="middle" dominant-baseline="central" fill="#0C447C">Requirements</text>
<rect x="160" y="42" width="70" height="24" rx="3" fill="#B5D4F4" stroke="#185FA5" stroke-width="0.5"/>
<text class="nl" x="195" y="54" text-anchor="middle" dominant-baseline="central" fill="#0C447C">Integ. design</text>
<rect x="252" y="74" width="100" height="24" rx="3" fill="#CECBF6" stroke="#534AB7" stroke-width="0.5"/>
<text class="nl" x="302" y="86" text-anchor="middle" dominant-baseline="central" fill="#3C3489">Order mgmt</text>
<rect x="252" y="106" width="70" height="24" rx="3" fill="#CECBF6" stroke="#534AB7" stroke-width="0.5"/>
<text class="nl" x="287" y="118" text-anchor="middle" dominant-baseline="central" fill="#3C3489">Provisioning</text>
<rect x="252" y="138" width="70" height="24" rx="3" fill="#CECBF6" stroke="#534AB7" stroke-width="0.5"/>
<text class="nl" x="287" y="150" text-anchor="middle" dominant-baseline="central" fill="#3C3489">Other build</text>
<rect x="252" y="170" width="100" height="24" rx="3" fill="#CECBF6" stroke="#534AB7" stroke-width="0.5"/>
<text class="nl" x="302" y="182" text-anchor="middle" dominant-baseline="central" fill="#3C3489">Mig. dev.</text>
<rect x="380" y="74" width="62" height="24" rx="3" fill="#FAC775" stroke="#854F0B" stroke-width="0.5"/>
<text class="nl" x="411" y="86" text-anchor="middle" dominant-baseline="central" fill="#633806">SIT</text>
<rect x="454" y="74" width="62" height="24" rx="3" fill="#FAC775" stroke="#854F0B" stroke-width="0.5"/>
<text class="nl" x="485" y="86" text-anchor="middle" dominant-baseline="central" fill="#633806">UAT</text>
<rect x="454" y="106" width="62" height="24" rx="3" fill="#FAC775" stroke="#854F0B" stroke-width="0.5"/>
<text class="nl" x="485" y="118" text-anchor="middle" dominant-baseline="central" fill="#633806">Perf. test</text>
<rect x="528" y="74" width="62" height="24" rx="3" fill="#F5C4B3" stroke="#993C1D" stroke-width="0.5"/>
<text class="nl" x="559" y="86" text-anchor="middle" dominant-baseline="central" fill="#712B13">Migration</text>
<rect x="600" y="74" width="62" height="24" rx="3" fill="#F5C4B3" stroke="#993C1D" stroke-width="0.5"/>
<text class="nl" x="631" y="86" text-anchor="middle" dominant-baseline="central" fill="#712B13">Cutover</text>
<polygon points="242,79 249,86 242,93 235,86" fill="#FAC775" stroke="#854F0B" stroke-width="1.5"/>
<text class="ms" x="242" y="105" text-anchor="middle" dominant-baseline="central" fill="#633806">API freeze</text>
<polygon points="366,79 373,86 366,93 359,86" fill="#FAC775" stroke="#854F0B" stroke-width="1.5"/>
<text class="ms" x="366" y="105" text-anchor="middle" dominant-baseline="central" fill="#633806">DM freeze</text>
<circle cx="672" cy="86" r="6" fill="#D3D1C7" stroke="#5F5E5A" stroke-width="1"/>
<rect x="4" y="214" width="12" height="12" rx="2" fill="#9FE1CB" stroke="#0F6E56" stroke-width="0.5"/>
<text style="font-size:11px" x="20" y="220" dominant-baseline="central" fill="#3d3d3a">Phase 1</text>
<rect x="74" y="214" width="12" height="12" rx="2" fill="#B5D4F4" stroke="#185FA5" stroke-width="0.5"/>
<text style="font-size:11px" x="90" y="220" dominant-baseline="central" fill="#3d3d3a">Phase 2</text>
<rect x="148" y="214" width="12" height="12" rx="2" fill="#CECBF6" stroke="#534AB7" stroke-width="0.5"/>
<text style="font-size:11px" x="164" y="220" dominant-baseline="central" fill="#3d3d3a">Phase 3</text>
<rect x="222" y="214" width="12" height="12" rx="2" fill="#FAC775" stroke="#854F0B" stroke-width="0.5"/>
<text style="font-size:11px" x="238" y="220" dominant-baseline="central" fill="#3d3d3a">Phase 4</text>
<rect x="296" y="214" width="12" height="12" rx="2" fill="#F5C4B3" stroke="#993C1D" stroke-width="0.5"/>
<text style="font-size:11px" x="312" y="220" dominant-baseline="central" fill="#3d3d3a">Phase 5</text>
<polygon points="376,214 382,220 376,226 370,220" fill="#FAC775" stroke="#854F0B" stroke-width="1"/>
<text style="font-size:11px" x="386" y="220" dominant-baseline="central" fill="#3d3d3a">Milestone</text>
</svg>