<svg width="100%" viewBox="0 0 680 470" xmlns="http://www.w3.org/2000/svg" style="font-family:sans-serif">

<!-- Green zone: below lower boundary -->
<polygon points="60.0,400.0 580.0,400.0 580.0,210.0" fill="#33CC00"/>
<!-- Yellow zone: between boundaries -->
<polygon points="60.0,400.0 580.0,210.0 580.0,20.0" fill="#FFFF00"/>
<!-- Red zone: above upper boundary -->
<polygon points="60.0,400.0 60.0,20.0 580.0,20.0" fill="#FF0000"/>

<!-- Chart border -->
<rect x="60.0" y="20.0" width="520" height="380" fill="none" stroke="#888780" stroke-width="0.8"/>

<!-- Grid lines -->
<line x1="112.0" y1="400.0" x2="112.0" y2="20.0" stroke="white" stroke-width="0.5" opacity="0.4"/>
<line x1="60.0" y1="362.0" x2="580.0" y2="362.0" stroke="white" stroke-width="0.5" opacity="0.4"/>
<line x1="164.0" y1="400.0" x2="164.0" y2="20.0" stroke="white" stroke-width="0.5" opacity="0.4"/>
<line x1="60.0" y1="324.0" x2="580.0" y2="324.0" stroke="white" stroke-width="0.5" opacity="0.4"/>
<line x1="216.0" y1="400.0" x2="216.0" y2="20.0" stroke="white" stroke-width="0.5" opacity="0.4"/>
<line x1="60.0" y1="286.0" x2="580.0" y2="286.0" stroke="white" stroke-width="0.5" opacity="0.4"/>
<line x1="268.0" y1="400.0" x2="268.0" y2="20.0" stroke="white" stroke-width="0.5" opacity="0.4"/>
<line x1="60.0" y1="248.0" x2="580.0" y2="248.0" stroke="white" stroke-width="0.5" opacity="0.4"/>
<line x1="320.0" y1="400.0" x2="320.0" y2="20.0" stroke="white" stroke-width="0.5" opacity="0.4"/>
<line x1="60.0" y1="210.0" x2="580.0" y2="210.0" stroke="white" stroke-width="0.5" opacity="0.4"/>
<line x1="372.0" y1="400.0" x2="372.0" y2="20.0" stroke="white" stroke-width="0.5" opacity="0.4"/>
<line x1="60.0" y1="172.0" x2="580.0" y2="172.0" stroke="white" stroke-width="0.5" opacity="0.4"/>
<line x1="424.0" y1="400.0" x2="424.0" y2="20.0" stroke="white" stroke-width="0.5" opacity="0.4"/>
<line x1="60.0" y1="134.0" x2="580.0" y2="134.0" stroke="white" stroke-width="0.5" opacity="0.4"/>
<line x1="476.0" y1="400.0" x2="476.0" y2="20.0" stroke="white" stroke-width="0.5" opacity="0.4"/>
<line x1="60.0" y1="96.0" x2="580.0" y2="96.0" stroke="white" stroke-width="0.5" opacity="0.4"/>
<line x1="528.0" y1="400.0" x2="528.0" y2="20.0" stroke="white" stroke-width="0.5" opacity="0.4"/>
<line x1="60.0" y1="58.0" x2="580.0" y2="58.0" stroke="white" stroke-width="0.5" opacity="0.4"/>
<text style="font-size:11px;fill:#3d3d3a" x="60.0" y="420" text-anchor="middle">0</text>
<text style="font-size:11px;fill:#3d3d3a" x="52" y="404.0" text-anchor="end">0</text>
<text style="font-size:11px;fill:#3d3d3a" x="112.0" y="420" text-anchor="middle">10</text>
<text style="font-size:11px;fill:#3d3d3a" x="52" y="366.0" text-anchor="end">10</text>
<text style="font-size:11px;fill:#3d3d3a" x="164.0" y="420" text-anchor="middle">20</text>
<text style="font-size:11px;fill:#3d3d3a" x="52" y="328.0" text-anchor="end">20</text>
<text style="font-size:11px;fill:#3d3d3a" x="216.0" y="420" text-anchor="middle">30</text>
<text style="font-size:11px;fill:#3d3d3a" x="52" y="290.0" text-anchor="end">30</text>
<text style="font-size:11px;fill:#3d3d3a" x="268.0" y="420" text-anchor="middle">40</text>
<text style="font-size:11px;fill:#3d3d3a" x="52" y="252.0" text-anchor="end">40</text>
<text style="font-size:11px;fill:#3d3d3a" x="320.0" y="420" text-anchor="middle">50</text>
<text style="font-size:11px;fill:#3d3d3a" x="52" y="214.0" text-anchor="end">50</text>
<text style="font-size:11px;fill:#3d3d3a" x="372.0" y="420" text-anchor="middle">60</text>
<text style="font-size:11px;fill:#3d3d3a" x="52" y="176.0" text-anchor="end">60</text>
<text style="font-size:11px;fill:#3d3d3a" x="424.0" y="420" text-anchor="middle">70</text>
<text style="font-size:11px;fill:#3d3d3a" x="52" y="138.0" text-anchor="end">70</text>
<text style="font-size:11px;fill:#3d3d3a" x="476.0" y="420" text-anchor="middle">80</text>
<text style="font-size:11px;fill:#3d3d3a" x="52" y="100.0" text-anchor="end">80</text>
<text style="font-size:11px;fill:#3d3d3a" x="528.0" y="420" text-anchor="middle">90</text>
<text style="font-size:11px;fill:#3d3d3a" x="52" y="62.0" text-anchor="end">90</text>
<text style="font-size:11px;fill:#3d3d3a" x="580.0" y="420" text-anchor="middle">100</text>
<text style="font-size:11px;fill:#3d3d3a" x="52" y="24.0" text-anchor="end">100</text>
<text style="font-size:12px;font-weight:500;fill:#3d3d3a" x="320" y="445" text-anchor="middle">% Project completion</text>
<text style="font-size:12px;font-weight:500;fill:#3d3d3a" transform="rotate(-90 14 210)" x="14" y="210" text-anchor="middle">% Buffer consumed</text>
<text style="font-size:14px;font-weight:500;fill:#3d3d3a" x="320" y="14" text-anchor="middle">Fever chart — Project Nexus</text>
<polyline points="80.8,400.0 112.0,381.0 153.6,369.6 190.0,354.4 242.0,316.4 294.0,255.6 346.0,190.99999999999997 398.0,134.0 465.6,88.40000000000003 528.0,39.0" fill="none" stroke="#000000" stroke-width="2.5" stroke-linejoin="round"/>
<circle cx="80.8" cy="400.0" r="5" fill="#000000"/>
<text style="font-size:10px;fill:#000000;font-weight:500" x="88.8" y="394.0" text-anchor="start">m4</text>
<circle cx="112.0" cy="381.0" r="5" fill="#000000"/>
<text style="font-size:10px;fill:#000000;font-weight:500" x="120.0" y="375.0" text-anchor="start">m5</text>
<circle cx="153.6" cy="369.6" r="5" fill="#000000"/>
<text style="font-size:10px;fill:#000000;font-weight:500" x="161.6" y="363.6" text-anchor="start">m6</text>
<circle cx="190.0" cy="354.4" r="5" fill="#000000"/>
<text style="font-size:10px;fill:#000000;font-weight:500" x="198.0" y="348.4" text-anchor="start">m7</text>
<circle cx="242.0" cy="316.4" r="5" fill="#000000"/>
<text style="font-size:10px;fill:#000000;font-weight:500" x="250.0" y="310.4" text-anchor="start">m8</text>
<circle cx="294.0" cy="255.6" r="5" fill="#000000"/>
<text style="font-size:10px;fill:#000000;font-weight:500" x="302.0" y="249.6" text-anchor="start">m9</text>
<circle cx="346.0" cy="190.99999999999997" r="5" fill="#000000"/>
<text style="font-size:10px;fill:#000000;font-weight:500" x="354.0" y="184.99999999999997" text-anchor="start">m10</text>
<circle cx="398.0" cy="134.0" r="5" fill="#000000"/>
<text style="font-size:10px;fill:#000000;font-weight:500" x="406.0" y="128.0" text-anchor="start">m11</text>
<circle cx="465.6" cy="88.40000000000003" r="5" fill="#000000"/>
<text style="font-size:10px;fill:#000000;font-weight:500" x="473.6" y="82.40000000000003" text-anchor="start">m12</text>
<circle cx="528.0" cy="39.0" r="5" fill="#000000"/>
<text style="font-size:10px;fill:#000000;font-weight:500" x="520.0" y="33.0" text-anchor="end">m13</text>
</svg>