<svg width="100%" viewBox="0 0 680 530" xmlns="http://www.w3.org/2000/svg" style="font-family:sans-serif">
<defs>
<style>
  .label  { font-size:11px; fill:#3d3d3a; }
  .danger { font-size:11px; fill:#A32D2D; }
  .warn   { font-size:11px; fill:#854F0B; }
  .grid      { stroke:#D3D1C7; stroke-width:0.5; }
  .grid-sec  { stroke:#B4B2A9; stroke-width:0.5; }
  .border    { stroke:#888780; stroke-width:0.5; fill:none; }
  .today     { stroke:#185FA5; stroke-width:1.5; stroke-dasharray:4 3; }
  .deadline  { stroke:#E24B4A; stroke-width:1; stroke-dasharray:4 3; opacity:0.6; }
  .diamond   { fill:#B4B2A9; stroke:#5F5E5A; stroke-width:1; }
  .row-bg    { fill:#F1EFE8; }
  /* Planned bars - light outline only */
  .planned   { fill:none; stroke:#B4B2A9; stroke-width:1; stroke-dasharray:3 2; }
  /* Actual bars - solid */
  .act-teal   { fill:#9FE1CB; stroke:#0F6E56; stroke-width:0.5; }
  .act-blue   { fill:#B5D4F4; stroke:#185FA5; stroke-width:0.5; }
  .act-purple { fill:#CECBF6; stroke:#534AB7; stroke-width:0.5; }
  .act-red    { fill:#F7C1C1; stroke:#A32D2D; stroke-width:0.5; }
  .act-amber  { fill:#FAC775; stroke:#854F0B; stroke-width:0.5; }
  /* Slip indicator */
  .slip  { fill:#FAECE7; stroke:#993C1D; stroke-width:0.5; stroke-dasharray:2 2; }
</style>
</defs>

<!-- Alternating row backgrounds -->
<rect x="0" y="32" width="674" height="24" class="row-bg"/>
<rect x="0" y="80" width="674" height="24" class="row-bg"/>
<rect x="0" y="168" width="674" height="24" class="row-bg"/>
<rect x="0" y="296" width="674" height="24" class="row-bg"/>
<rect x="0" y="384" width="674" height="24" class="row-bg"/>
<rect x="0" y="452" width="674" height="24" class="row-bg"/>

<!-- Vertical month grid lines -->
<line x1="198" y1="8" x2="198" y2="476" class="grid"/>
<line x1="232" y1="8" x2="232" y2="476" class="grid"/>
<line x1="266" y1="8" x2="266" y2="476" class="grid"/>
<line x1="300" y1="8" x2="300" y2="476" class="grid"/>
<line x1="334" y1="8" x2="334" y2="476" class="grid"/>
<line x1="368" y1="8" x2="368" y2="476" class="grid"/>
<line x1="402" y1="8" x2="402" y2="476" class="grid"/>
<line x1="436" y1="8" x2="436" y2="476" class="grid"/>
<line x1="470" y1="8" x2="470" y2="476" class="grid"/>
<line x1="504" y1="8" x2="504" y2="476" class="grid"/>
<line x1="538" y1="8" x2="538" y2="476" class="grid"/>
<line x1="572" y1="8" x2="572" y2="476" class="grid"/>
<line x1="606" y1="8" x2="606" y2="476" class="grid"/>
<line x1="640" y1="8" x2="640" y2="476" class="grid"/>

<!-- Fiber rollout deadline -->
<line x1="606" y1="8" x2="606" y2="476" class="deadline"/>

<!-- Today marker at month 5 -->
<line x1="334" y1="8" x2="334" y2="476" class="today"/>

<!-- Horizontal row dividers -->
<line x1="0" y1="8"   x2="674" y2="8"   class="grid-sec"/>
<line x1="0" y1="32"  x2="674" y2="32"  class="grid-sec"/>
<line x1="0" y1="56"  x2="674" y2="56"  class="grid"/>
<line x1="0" y1="76"  x2="674" y2="76"  class="grid-sec"/>
<line x1="0" y1="80"  x2="674" y2="80"  class="grid-sec"/>
<line x1="0" y1="104" x2="674" y2="104" class="grid"/>
<line x1="0" y1="124" x2="674" y2="124" class="grid"/>
<line x1="0" y1="144" x2="674" y2="144" class="grid"/>
<line x1="0" y1="164" x2="674" y2="164" class="grid-sec"/>
<line x1="0" y1="168" x2="674" y2="168" class="grid-sec"/>
<line x1="0" y1="192" x2="674" y2="192" class="grid"/>
<line x1="0" y1="212" x2="674" y2="212" class="grid"/>
<line x1="0" y1="232" x2="674" y2="232" class="grid"/>
<line x1="0" y1="252" x2="674" y2="252" class="grid"/>
<line x1="0" y1="272" x2="674" y2="272" class="grid"/>
<line x1="0" y1="292" x2="674" y2="292" class="grid-sec"/>
<line x1="0" y1="296" x2="674" y2="296" class="grid-sec"/>
<line x1="0" y1="320" x2="674" y2="320" class="grid"/>
<line x1="0" y1="340" x2="674" y2="340" class="grid"/>
<line x1="0" y1="360" x2="674" y2="360" class="grid"/>
<line x1="0" y1="380" x2="674" y2="380" class="grid-sec"/>
<line x1="0" y1="384" x2="674" y2="384" class="grid-sec"/>
<line x1="0" y1="408" x2="674" y2="408" class="grid"/>
<line x1="0" y1="428" x2="674" y2="428" class="grid"/>
<line x1="0" y1="448" x2="674" y2="448" class="grid-sec"/>
<line x1="0" y1="452" x2="674" y2="452" class="grid-sec"/>
<line x1="0" y1="476" x2="674" y2="476" class="grid-sec"/>

<!-- Chart outer border and label divider -->
<rect x="0" y="8" width="674" height="468" class="border"/>
<line x1="162" y1="8" x2="162" y2="476" class="grid-sec"/>

<!-- Month header -->
<text class="label" x="8"   y="20" dominant-baseline="central">Mo.</text>
<text class="label" x="181" y="20" text-anchor="middle" dominant-baseline="central">1</text>
<text class="label" x="215" y="20" text-anchor="middle" dominant-baseline="central">2</text>
<text class="label" x="249" y="20" text-anchor="middle" dominant-baseline="central">3</text>
<text class="label" x="283" y="20" text-anchor="middle" dominant-baseline="central">4</text>
<text class="label" x="317" y="20" text-anchor="middle" dominant-baseline="central" style="font-weight:500;fill:#185FA5">5</text>
<text class="label" x="351" y="20" text-anchor="middle" dominant-baseline="central">6</text>
<text class="label" x="385" y="20" text-anchor="middle" dominant-baseline="central">7</text>
<text class="label" x="419" y="20" text-anchor="middle" dominant-baseline="central">8</text>
<text class="label" x="453" y="20" text-anchor="middle" dominant-baseline="central">9</text>
<text class="label" x="487" y="20" text-anchor="middle" dominant-baseline="central">10</text>
<text class="label" x="521" y="20" text-anchor="middle" dominant-baseline="central">11</text>
<text class="label" x="555" y="20" text-anchor="middle" dominant-baseline="central">12</text>
<text class="label" x="589" y="20" text-anchor="middle" dominant-baseline="central">13</text>
<text class="label" x="623" y="20" text-anchor="middle" dominant-baseline="central">14</text>
<text class="label" x="657" y="20" text-anchor="middle" dominant-baseline="central">15</text>

<!-- Section labels -->
<text class="label" x="4" y="44"  dominant-baseline="central">Phase 1 — Initiation</text>
<text class="label" x="4" y="92"  dominant-baseline="central">Phase 2 — Design</text>
<text class="label" x="4" y="180" dominant-baseline="central">Phase 3 — Build</text>
<text class="label" x="4" y="308" dominant-baseline="central">Phase 4 — Testing</text>
<text class="label" x="4" y="396" dominant-baseline="central">Phase 5 — Cutover</text>
<text class="label" x="4" y="464" dominant-baseline="central">Milestones</text>

<!-- Work row labels -->
<text class="label" x="4" y="66"  dominant-baseline="central">Initiation &amp; setup</text>
<text class="label" x="4" y="114" dominant-baseline="central">Solution architecture</text>
<text class="label" x="4" y="134" dominant-baseline="central">Detailed requirements</text>
<text class="label" x="4" y="154" dominant-baseline="central">Integration design</text>
<text class="label" x="4" y="202" dominant-baseline="central">Order mgmt / UI</text>
<text class="label" x="4" y="222" dominant-baseline="central">Provisioning integ.</text>
<text class="label" x="4" y="242" dominant-baseline="central">Billing &amp; field</text>
<text class="label" x="4" y="262" dominant-baseline="central">Migration development</text>
<text class="label" x="4" y="282" dominant-baseline="central">Back-office ops</text>
<text class="label" x="4" y="330" dominant-baseline="central">System integ. test</text>
<text class="label" x="4" y="350" dominant-baseline="central">User acceptance test</text>
<text class="label" x="4" y="370" dominant-baseline="central">Performance test</text>
<text class="label" x="4" y="418" dominant-baseline="central">Migration batches</text>
<text class="label" x="4" y="438" dominant-baseline="central">Cutover</text>

<!-- ═══ PLANNED BARS (dashed outline) ═══ -->
<!-- Phase 1 span + bar -->
<rect x="164" y="41" width="68"  height="6"  rx="2" class="planned"/>
<rect x="164" y="59" width="68"  height="14" rx="3" class="planned"/>
<!-- Phase 2 span + bars -->
<rect x="198" y="89"  width="136" height="6"  rx="2" class="planned"/>
<rect x="198" y="107" width="102" height="14" rx="3" class="planned"/>
<rect x="198" y="127" width="136" height="14" rx="3" class="planned"/>
<rect x="232" y="147" width="102" height="14" rx="3" class="planned"/>
<!-- Phase 3 span + bars -->
<rect x="266" y="177" width="272" height="6"  rx="2" class="planned"/>
<rect x="266" y="195" width="238" height="14" rx="3" class="planned"/>
<rect x="266" y="215" width="272" height="14" rx="3" class="planned"/>
<rect x="300" y="235" width="204" height="14" rx="3" class="planned"/>
<rect x="334" y="255" width="204" height="14" rx="3" class="planned"/>
<rect x="300" y="275" width="204" height="14" rx="3" class="planned"/>
<!-- Phase 4 span + bars -->
<rect x="470" y="305" width="136" height="6"  rx="2" class="planned"/>
<rect x="470" y="323" width="68"  height="14" rx="3" class="planned"/>
<rect x="504" y="343" width="102" height="14" rx="3" class="planned"/>
<rect x="538" y="363" width="68"  height="14" rx="3" class="planned"/>
<!-- Phase 5 span + bars -->
<rect x="572" y="393" width="102" height="6"  rx="2" class="planned"/>
<rect x="572" y="411" width="102" height="14" rx="3" class="planned"/>
<rect x="606" y="431" width="68"  height="14" rx="3" class="planned"/>

<!-- ═══ ACTUAL BARS (solid, only past/current work) ═══ -->
<!-- Phase 1 complete -->
<rect x="164" y="41" width="68"  height="6"  rx="2" class="act-teal"/>
<rect x="164" y="59" width="68"  height="14" rx="3" class="act-teal"/>

<!-- Phase 2: architecture complete but ran 1 month late (ends m5 not m4) -->
<rect x="198" y="107" width="136" height="14" rx="3" class="act-blue"/>
<!-- Slip extension for architecture -->
<rect x="300" y="107" width="34" height="14" rx="3" class="slip"/>

<!-- Requirements: started on time, still ongoing at m5 (planned end m5, actually not done) -->
<rect x="198" y="127" width="136" height="14" rx="3" class="act-blue"/>
<!-- Requirements slip indicator - extending past planned end -->
<rect x="334" y="127" width="20" height="14" rx="3" class="slip"/>

<!-- Integration design: started month 4 instead of 3, barely started -->
<rect x="266" y="147" width="68" height="14" rx="3" class="act-blue"/>
<!-- Planned was m3 start - slip indicator -->
<rect x="232" y="147" width="34" height="14" rx="3" class="slip"/>

<!-- Phase 3: some teams started in m4 but against unstable requirements -->
<!-- Order mgmt/UI: started m4 but slow progress -->
<rect x="266" y="195" width="68" height="14" rx="3" class="act-purple"/>
<!-- Provisioning: started m4, on critical path, already behind -->
<rect x="266" y="215" width="68" height="14" rx="3" class="act-red"/>
<!-- Billing & field: not yet started (planned m5 start) -->
<!-- Back-office: not yet started -->

<!-- Milestone diamonds - planned positions -->
<rect x="229" y="456" width="6" height="6" transform="rotate(45 232 459)" class="diamond"/>
<rect x="331" y="456" width="6" height="6" transform="rotate(45 334 459)" class="diamond"/>
<rect x="433" y="456" width="6" height="6" transform="rotate(45 436 459)" class="diamond"/>
<rect x="501" y="456" width="6" height="6" transform="rotate(45 504 459)" class="diamond"/>
<rect x="671" y="456" width="6" height="6" transform="rotate(45 674 459)" class="diamond"/>

<text class="label" x="232" y="471" text-anchor="middle" dominant-baseline="central">Kick-off</text>
<text class="label" x="334" y="471" text-anchor="middle" dominant-baseline="central">Design gate</text>
<text class="label" x="436" y="471" text-anchor="middle" dominant-baseline="central">Integ. env</text>
<text class="label" x="504" y="471" text-anchor="middle" dominant-baseline="central">UAT</text>
<text class="label" x="670" y="471" text-anchor="end"    dominant-baseline="central">Go-live</text>

<!-- Today label -->
<text class="label" x="336" y="20" dominant-baseline="central" style="font-weight:500;fill:#185FA5">now</text>

<!-- Fiber deadline label -->
<text class="danger" x="608" y="20" dominant-baseline="central">fiber</text>

<!-- Legend -->
<rect x="8"   y="484" width="16" height="10" rx="2" style="fill:#9FE1CB;stroke:#0F6E56;stroke-width:0.5"/>
<text class="label" x="28"  y="490" dominant-baseline="central">Complete</text>
<rect x="100" y="484" width="16" height="10" rx="2" style="fill:none;stroke:#B4B2A9;stroke-width:1;stroke-dasharray:3 2"/>
<text class="label" x="120" y="490" dominant-baseline="central">Planned (not started)</text>
<rect x="282" y="484" width="16" height="10" rx="2" style="fill:#FAECE7;stroke:#993C1D;stroke-width:0.5;stroke-dasharray:2 2"/>
<text class="label" x="302" y="490" dominant-baseline="central">Slipping</text>
<line x1="378" y1="484" x2="378" y2="494" style="stroke:#185FA5;stroke-width:1.5;stroke-dasharray:4 3"/>
<text class="label" x="383" y="490" dominant-baseline="central">Now (month 5)</text>
<line x1="480" y1="484" x2="480" y2="494" class="deadline"/>
<text class="danger" x="485" y="490" dominant-baseline="central">Fiber deadline</text>
</svg>