<svg width="100%" viewBox="0 0 680 260" xmlns="http://www.w3.org/2000/svg" style="font-family:sans-serif">
<defs>
<style>.nl{font-size:11px;font-weight:500} .ms{font-size:9px;font-style:italic}</style>
<marker id="arrow" viewBox="0 0 10 10" refX="8" refY="5" markerWidth="6" markerHeight="6" orient="auto-start-reverse"><path d="M2 1L8 5L2 9" fill="none" stroke="#888780" stroke-width="1.5" stroke-linecap="round" stroke-linejoin="round"/></marker>
</defs>
<path d="M72,100 L76,100 L76,52 L82,52" fill="none" stroke="#888780" stroke-width="0.8" marker-end="url(#arrow)"/>
<path d="M72,100 L82,100" fill="none" stroke="#888780" stroke-width="0.8" marker-end="url(#arrow)"/>
<path d="M72,100 L76,100 L76,148 L82,148" fill="none" stroke="#888780" stroke-width="0.8" marker-end="url(#arrow)"/>
<path d="M150,52 L154,52 L154,100 L161,100" fill="none" stroke="#888780" stroke-width="0.8" marker-end="url(#arrow)"/>
<path d="M150,100 L161,100" fill="none" stroke="#888780" stroke-width="0.8" marker-end="url(#arrow)"/>
<path d="M150,148 L160,148 L160,112 L188,112" fill="none" stroke="#888780" stroke-width="0.8" marker-end="url(#arrow)"/>
<path d="M175,100 L188,100" fill="none" stroke="#888780" stroke-width="0.8" marker-end="url(#arrow)"/>
<path d="M168,107 L168,132 L188,132" fill="none" stroke="#888780" stroke-width="0.8" marker-end="url(#arrow)"/>
<path d="M168,107 L168,164 L188,164" fill="none" stroke="#888780" stroke-width="0.8" marker-end="url(#arrow)"/>
<path d="M168,107 L168,196 L188,196" fill="none" stroke="#888780" stroke-width="0.8" marker-end="url(#arrow)"/>
<path d="M278,100 L283,100" fill="none" stroke="#888780" stroke-width="0.8" marker-end="url(#arrow)"/>
<path d="M256,132 L304,132 L304,100 L310,100" fill="none" stroke="#888780" stroke-width="0.8" marker-end="url(#arrow)"/>
<path d="M256,164 L300,164 L300,104 L310,104" fill="none" stroke="#888780" stroke-width="0.8" marker-end="url(#arrow)"/>
<path d="M256,196 L290,196 L290,107" fill="none" stroke="#888780" stroke-width="0.8" marker-end="url(#arrow)"/>
<path d="M297,100 L310,100" fill="none" stroke="#888780" stroke-width="0.8" marker-end="url(#arrow)"/>
<path d="M368,100 L372,100 L372,76 L376,76" fill="none" stroke="#888780" stroke-width="0.8" marker-end="url(#arrow)"/>
<path d="M368,100 L372,100 L372,124 L376,124" fill="none" stroke="#888780" stroke-width="0.8" marker-end="url(#arrow)"/>
<path d="M434,76 L438,76 L438,100 L442,100" fill="none" stroke="#888780" stroke-width="0.8" marker-end="url(#arrow)"/>
<path d="M434,124 L438,124 L438,100 L442,100" fill="none" stroke="#888780" stroke-width="0.8" marker-end="url(#arrow)"/>
<path d="M500,100 L508,100" fill="none" stroke="#888780" stroke-width="0.8" marker-end="url(#arrow)"/>
<path d="M566,100 L570,100" fill="none" stroke="#888780" stroke-width="0.8" marker-end="url(#arrow)"/>
<rect x="4" y="88" width="68" height="24" rx="3" fill="#9FE1CB" stroke="#0F6E56" stroke-width="0.5"/>
<text class="nl" x="38" y="99" text-anchor="middle" fill="#085041">Initiation</text>
<text style="font-size:9px;opacity:0.8" x="38" y="111" text-anchor="middle" fill="#085041">2m</text>
<rect x="82" y="40" width="68" height="24" rx="3" fill="#B5D4F4" stroke="#185FA5" stroke-width="0.5"/>
<text class="nl" x="116" y="51" text-anchor="middle" fill="#0C447C">Architecture</text>
<text style="font-size:9px;opacity:0.8" x="116" y="63" text-anchor="middle" fill="#0C447C">3m</text>
<rect x="82" y="88" width="68" height="24" rx="3" fill="#B5D4F4" stroke="#185FA5" stroke-width="0.5"/>
<text class="nl" x="116" y="99" text-anchor="middle" fill="#0C447C">Integ. design</text>
<text style="font-size:9px;opacity:0.8" x="116" y="111" text-anchor="middle" fill="#0C447C">3m</text>
<rect x="82" y="136" width="68" height="24" rx="3" fill="#B5D4F4" stroke="#185FA5" stroke-width="0.5"/>
<text class="nl" x="116" y="147" text-anchor="middle" fill="#0C447C">Requirements</text>
<text style="font-size:9px;opacity:0.8" x="116" y="159" text-anchor="middle" fill="#0C447C">4m</text>
<rect x="188" y="88" width="90" height="24" rx="3" fill="#CECBF6" stroke="#534AB7" stroke-width="0.5"/>
<text class="nl" x="233" y="99" text-anchor="middle" fill="#3C3489">Order mgmt</text>
<text style="font-size:9px;opacity:0.8" x="233" y="111" text-anchor="middle" fill="#3C3489">7m</text>
<rect x="188" y="120" width="68" height="24" rx="3" fill="#CECBF6" stroke="#534AB7" stroke-width="0.5"/>
<text class="nl" x="222" y="131" text-anchor="middle" fill="#3C3489">Provisioning</text>
<text style="font-size:9px;opacity:0.8" x="222" y="143" text-anchor="middle" fill="#3C3489">6m</text>
<rect x="188" y="152" width="68" height="24" rx="3" fill="#CECBF6" stroke="#534AB7" stroke-width="0.5"/>
<text class="nl" x="222" y="163" text-anchor="middle" fill="#3C3489">Other build</text>
<text style="font-size:9px;opacity:0.8" x="222" y="175" text-anchor="middle" fill="#3C3489">6m</text>
<rect x="188" y="184" width="68" height="24" rx="3" fill="#CECBF6" stroke="#534AB7" stroke-width="0.5"/>
<text class="nl" x="222" y="195" text-anchor="middle" fill="#3C3489">Mig. dev.</text>
<text style="font-size:9px;opacity:0.8" x="222" y="207" text-anchor="middle" fill="#3C3489">6m</text>
<rect x="310" y="88" width="58" height="24" rx="3" fill="#FAC775" stroke="#854F0B" stroke-width="0.5"/>
<text class="nl" x="339" y="99" text-anchor="middle" fill="#633806">SIT</text>
<text style="font-size:9px;opacity:0.8" x="339" y="111" text-anchor="middle" fill="#633806">2m</text>
<rect x="376" y="64" width="58" height="24" rx="3" fill="#FAC775" stroke="#854F0B" stroke-width="0.5"/>
<text class="nl" x="405" y="75" text-anchor="middle" fill="#633806">UAT</text>
<text style="font-size:9px;opacity:0.8" x="405" y="87" text-anchor="middle" fill="#633806">2m</text>
<rect x="376" y="112" width="58" height="24" rx="3" fill="#FAC775" stroke="#854F0B" stroke-width="0.5"/>
<text class="nl" x="405" y="123" text-anchor="middle" fill="#633806">Perf. test</text>
<text style="font-size:9px;opacity:0.8" x="405" y="135" text-anchor="middle" fill="#633806">2m</text>
<rect x="442" y="88" width="58" height="24" rx="3" fill="#F5C4B3" stroke="#993C1D" stroke-width="0.5"/>
<text class="nl" x="471" y="99" text-anchor="middle" fill="#712B13">Migration</text>
<text style="font-size:9px;opacity:0.8" x="471" y="111" text-anchor="middle" fill="#712B13">2m</text>
<rect x="508" y="88" width="58" height="24" rx="3" fill="#F5C4B3" stroke="#993C1D" stroke-width="0.5"/>
<text class="nl" x="537" y="99" text-anchor="middle" fill="#712B13">Cutover</text>
<text style="font-size:9px;opacity:0.8" x="537" y="111" text-anchor="middle" fill="#712B13">1m</text>
<polygon points="168,93 175,100 168,107 161,100" fill="#FAC775" stroke="#854F0B" stroke-width="1.5"/>
<text class="ms" x="168" y="84" text-anchor="middle" fill="#633806">API freeze</text>
<polygon points="290,93 297,100 290,107 283,100" fill="#FAC775" stroke="#854F0B" stroke-width="1.5"/>
<text class="ms" x="290" y="84" text-anchor="middle" fill="#633806">DM freeze</text>
<circle cx="576" cy="100" r="6" fill="#D3D1C7" stroke="#5F5E5A" stroke-width="1"/>
<rect x="4" y="232" width="12" height="12" rx="2" fill="#9FE1CB" stroke="#0F6E56" stroke-width="0.5"/>
<text style="font-size:11px" x="20" y="242" fill="#3d3d3a">Phase 1</text>
<rect x="74" y="232" width="12" height="12" rx="2" fill="#B5D4F4" stroke="#185FA5" stroke-width="0.5"/>
<text style="font-size:11px" x="90" y="242" fill="#3d3d3a">Phase 2</text>
<rect x="148" y="232" width="12" height="12" rx="2" fill="#CECBF6" stroke="#534AB7" stroke-width="0.5"/>
<text style="font-size:11px" x="164" y="242" fill="#3d3d3a">Phase 3</text>
<rect x="222" y="232" width="12" height="12" rx="2" fill="#FAC775" stroke="#854F0B" stroke-width="0.5"/>
<text style="font-size:11px" x="238" y="242" fill="#3d3d3a">Phase 4</text>
<rect x="296" y="232" width="12" height="12" rx="2" fill="#F5C4B3" stroke="#993C1D" stroke-width="0.5"/>
<text style="font-size:11px" x="312" y="242" fill="#3d3d3a">Phase 5</text>
<polygon points="376,232 382,238 376,244 370,238" fill="#FAC775" stroke="#854F0B" stroke-width="1"/>
<text style="font-size:11px" x="388" y="242" fill="#3d3d3a">Milestone</text>
</svg>